<mxfile host="app.diagrams.net" agent="Mozilla/5.0 (Windows NT 10.0; Win64; x64) AppleWebKit/537.36 (KHTML, like Gecko) Chrome/127.0.0.0 Safari/537.36" version="24.7.7">
  <diagram name="Page-1" id="c4acf3e9-155e-7222-9cf6-157b1a14988f">
    <mxGraphModel dx="1669" dy="441" grid="1" gridSize="10" guides="1" tooltips="1" connect="1" arrows="1" fold="1" page="1" pageScale="1" pageWidth="850" pageHeight="1100" background="none" math="0" shadow="0">
      <root>
        <mxCell id="0" />
        <mxCell id="1" parent="0" />
        <mxCell id="v5DxhLGSwD0W5rHrL8kh-8" value="Users" style="swimlane;fontStyle=1;align=center;verticalAlign=top;childLayout=stackLayout;horizontal=1;startSize=26;horizontalStack=0;resizeParent=1;resizeParentMax=0;resizeLast=0;collapsible=1;marginBottom=0;whiteSpace=wrap;html=1;" vertex="1" parent="1">
          <mxGeometry x="-550" y="100" width="380" height="218" as="geometry">
            <mxRectangle x="-550" y="100" width="70" height="30" as="alternateBounds" />
          </mxGeometry>
        </mxCell>
        <mxCell id="v5DxhLGSwD0W5rHrL8kh-24" value="IdUsuario INT NOT NULL AUTO_INCREMENT PRIMARY KEY," style="text;strokeColor=none;fillColor=none;align=left;verticalAlign=top;spacingLeft=4;spacingRight=4;overflow=hidden;rotatable=0;points=[[0,0.5],[1,0.5]];portConstraint=eastwest;whiteSpace=wrap;html=1;" vertex="1" parent="v5DxhLGSwD0W5rHrL8kh-8">
          <mxGeometry y="26" width="380" height="32" as="geometry" />
        </mxCell>
        <mxCell id="v5DxhLGSwD0W5rHrL8kh-21" value="nombre VARCHAR(50) NOT NULL," style="text;strokeColor=none;fillColor=none;align=left;verticalAlign=top;spacingLeft=4;spacingRight=4;overflow=hidden;rotatable=0;points=[[0,0.5],[1,0.5]];portConstraint=eastwest;whiteSpace=wrap;html=1;" vertex="1" parent="v5DxhLGSwD0W5rHrL8kh-8">
          <mxGeometry y="58" width="380" height="32" as="geometry" />
        </mxCell>
        <mxCell id="v5DxhLGSwD0W5rHrL8kh-22" value="apellido VARCHAR(50) NOT NULL," style="text;strokeColor=none;fillColor=none;align=left;verticalAlign=top;spacingLeft=4;spacingRight=4;overflow=hidden;rotatable=0;points=[[0,0.5],[1,0.5]];portConstraint=eastwest;whiteSpace=wrap;html=1;" vertex="1" parent="v5DxhLGSwD0W5rHrL8kh-8">
          <mxGeometry y="90" width="380" height="32" as="geometry" />
        </mxCell>
        <mxCell id="v5DxhLGSwD0W5rHrL8kh-25" value="tipDoc VARCHAR(15) NOT NULL," style="text;strokeColor=none;fillColor=none;align=left;verticalAlign=top;spacingLeft=4;spacingRight=4;overflow=hidden;rotatable=0;points=[[0,0.5],[1,0.5]];portConstraint=eastwest;whiteSpace=wrap;html=1;" vertex="1" parent="v5DxhLGSwD0W5rHrL8kh-8">
          <mxGeometry y="122" width="380" height="32" as="geometry" />
        </mxCell>
        <mxCell id="v5DxhLGSwD0W5rHrL8kh-26" value="numDoc INT NOT NULL," style="text;strokeColor=none;fillColor=none;align=left;verticalAlign=top;spacingLeft=4;spacingRight=4;overflow=hidden;rotatable=0;points=[[0,0.5],[1,0.5]];portConstraint=eastwest;whiteSpace=wrap;html=1;" vertex="1" parent="v5DxhLGSwD0W5rHrL8kh-8">
          <mxGeometry y="154" width="380" height="32" as="geometry" />
        </mxCell>
        <mxCell id="v5DxhLGSwD0W5rHrL8kh-23" value="pass VARCHAR(20) NOT NULL" style="text;strokeColor=none;fillColor=none;align=left;verticalAlign=top;spacingLeft=4;spacingRight=4;overflow=hidden;rotatable=0;points=[[0,0.5],[1,0.5]];portConstraint=eastwest;whiteSpace=wrap;html=1;" vertex="1" parent="v5DxhLGSwD0W5rHrL8kh-8">
          <mxGeometry y="186" width="380" height="32" as="geometry" />
        </mxCell>
        <mxCell id="v5DxhLGSwD0W5rHrL8kh-13" value="&lt;b&gt;Productos&lt;/b&gt;" style="swimlane;fontStyle=0;childLayout=stackLayout;horizontal=1;startSize=26;fillColor=none;horizontalStack=0;resizeParent=1;resizeParentMax=0;resizeLast=0;collapsible=1;marginBottom=0;whiteSpace=wrap;html=1;" vertex="1" parent="1">
          <mxGeometry x="-550" y="360" width="360" height="204" as="geometry" />
        </mxCell>
        <mxCell id="v5DxhLGSwD0W5rHrL8kh-14" value="IdProducto INT NOT NULL AUTO_INCREMENT PRIMARY KEY," style="text;strokeColor=none;fillColor=none;align=left;verticalAlign=top;spacingLeft=4;spacingRight=4;overflow=hidden;rotatable=0;points=[[0,0.5],[1,0.5]];portConstraint=eastwest;whiteSpace=wrap;html=1;" vertex="1" parent="v5DxhLGSwD0W5rHrL8kh-13">
          <mxGeometry y="26" width="360" height="26" as="geometry" />
        </mxCell>
        <mxCell id="v5DxhLGSwD0W5rHrL8kh-15" value="nombre_pr VARCHAR(50) NOT NULL," style="text;strokeColor=none;fillColor=none;align=left;verticalAlign=top;spacingLeft=4;spacingRight=4;overflow=hidden;rotatable=0;points=[[0,0.5],[1,0.5]];portConstraint=eastwest;whiteSpace=wrap;html=1;" vertex="1" parent="v5DxhLGSwD0W5rHrL8kh-13">
          <mxGeometry y="52" width="360" height="26" as="geometry" />
        </mxCell>
        <mxCell id="v5DxhLGSwD0W5rHrL8kh-16" value="fecha_fab DATE NOT NULL,&amp;nbsp;" style="text;strokeColor=none;fillColor=none;align=left;verticalAlign=top;spacingLeft=4;spacingRight=4;overflow=hidden;rotatable=0;points=[[0,0.5],[1,0.5]];portConstraint=eastwest;whiteSpace=wrap;html=1;" vertex="1" parent="v5DxhLGSwD0W5rHrL8kh-13">
          <mxGeometry y="78" width="360" height="32" as="geometry" />
        </mxCell>
        <mxCell id="v5DxhLGSwD0W5rHrL8kh-17" value="fecha_venc DATE NOT NULL," style="text;strokeColor=none;fillColor=none;align=left;verticalAlign=top;spacingLeft=4;spacingRight=4;overflow=hidden;rotatable=0;points=[[0,0.5],[1,0.5]];portConstraint=eastwest;whiteSpace=wrap;html=1;" vertex="1" parent="v5DxhLGSwD0W5rHrL8kh-13">
          <mxGeometry y="110" width="360" height="30" as="geometry" />
        </mxCell>
        <mxCell id="v5DxhLGSwD0W5rHrL8kh-18" value="cantidad INT NOT NULL," style="text;strokeColor=none;fillColor=none;align=left;verticalAlign=top;spacingLeft=4;spacingRight=4;overflow=hidden;rotatable=0;points=[[0,0.5],[1,0.5]];portConstraint=eastwest;whiteSpace=wrap;html=1;" vertex="1" parent="v5DxhLGSwD0W5rHrL8kh-13">
          <mxGeometry y="140" width="360" height="32" as="geometry" />
        </mxCell>
        <mxCell id="v5DxhLGSwD0W5rHrL8kh-19" value="precio FLOAT" style="text;strokeColor=none;fillColor=none;align=left;verticalAlign=top;spacingLeft=4;spacingRight=4;overflow=hidden;rotatable=0;points=[[0,0.5],[1,0.5]];portConstraint=eastwest;whiteSpace=wrap;html=1;" vertex="1" parent="v5DxhLGSwD0W5rHrL8kh-13">
          <mxGeometry y="172" width="360" height="32" as="geometry" />
        </mxCell>
        <mxCell id="v5DxhLGSwD0W5rHrL8kh-448" value="&lt;b&gt;Inventario_MatPrim&lt;/b&gt;" style="swimlane;fontStyle=0;childLayout=stackLayout;horizontal=1;startSize=26;fillColor=none;horizontalStack=0;resizeParent=1;resizeParentMax=0;resizeLast=0;collapsible=1;marginBottom=0;whiteSpace=wrap;html=1;" vertex="1" parent="1">
          <mxGeometry x="-550" y="600" width="360" height="172" as="geometry" />
        </mxCell>
        <mxCell id="v5DxhLGSwD0W5rHrL8kh-449" value="IdInsumo INT NOT NULL AUTO_INCREMENT PRIMARY KEY," style="text;strokeColor=none;fillColor=none;align=left;verticalAlign=top;spacingLeft=4;spacingRight=4;overflow=hidden;rotatable=0;points=[[0,0.5],[1,0.5]];portConstraint=eastwest;whiteSpace=wrap;html=1;" vertex="1" parent="v5DxhLGSwD0W5rHrL8kh-448">
          <mxGeometry y="26" width="360" height="26" as="geometry" />
        </mxCell>
        <mxCell id="v5DxhLGSwD0W5rHrL8kh-450" value="nombre_mt VARCHAR(50) NOT NULL," style="text;strokeColor=none;fillColor=none;align=left;verticalAlign=top;spacingLeft=4;spacingRight=4;overflow=hidden;rotatable=0;points=[[0,0.5],[1,0.5]];portConstraint=eastwest;whiteSpace=wrap;html=1;" vertex="1" parent="v5DxhLGSwD0W5rHrL8kh-448">
          <mxGeometry y="52" width="360" height="26" as="geometry" />
        </mxCell>
        <mxCell id="v5DxhLGSwD0W5rHrL8kh-451" value="fecha_ingreso DATE NOT NULL," style="text;strokeColor=none;fillColor=none;align=left;verticalAlign=top;spacingLeft=4;spacingRight=4;overflow=hidden;rotatable=0;points=[[0,0.5],[1,0.5]];portConstraint=eastwest;whiteSpace=wrap;html=1;" vertex="1" parent="v5DxhLGSwD0W5rHrL8kh-448">
          <mxGeometry y="78" width="360" height="32" as="geometry" />
        </mxCell>
        <mxCell id="v5DxhLGSwD0W5rHrL8kh-452" value="fecha_venc DATE NOT NULL," style="text;strokeColor=none;fillColor=none;align=left;verticalAlign=top;spacingLeft=4;spacingRight=4;overflow=hidden;rotatable=0;points=[[0,0.5],[1,0.5]];portConstraint=eastwest;whiteSpace=wrap;html=1;" vertex="1" parent="v5DxhLGSwD0W5rHrL8kh-448">
          <mxGeometry y="110" width="360" height="30" as="geometry" />
        </mxCell>
        <mxCell id="v5DxhLGSwD0W5rHrL8kh-453" value="cantidad INT NOT NULL," style="text;strokeColor=none;fillColor=none;align=left;verticalAlign=top;spacingLeft=4;spacingRight=4;overflow=hidden;rotatable=0;points=[[0,0.5],[1,0.5]];portConstraint=eastwest;whiteSpace=wrap;html=1;" vertex="1" parent="v5DxhLGSwD0W5rHrL8kh-448">
          <mxGeometry y="140" width="360" height="32" as="geometry" />
        </mxCell>
        <mxCell id="v5DxhLGSwD0W5rHrL8kh-455" value="&lt;b&gt;Facturacion&lt;/b&gt;" style="swimlane;fontStyle=0;childLayout=stackLayout;horizontal=1;startSize=26;fillColor=none;horizontalStack=0;resizeParent=1;resizeParentMax=0;resizeLast=0;collapsible=1;marginBottom=0;whiteSpace=wrap;html=1;" vertex="1" parent="1">
          <mxGeometry x="-10" y="220" width="380" height="214" as="geometry" />
        </mxCell>
        <mxCell id="v5DxhLGSwD0W5rHrL8kh-456" value="IdFactura INT NOT NULL AUTO_INCREMENT PRIMARY KEY," style="text;strokeColor=none;fillColor=none;align=left;verticalAlign=top;spacingLeft=4;spacingRight=4;overflow=hidden;rotatable=0;points=[[0,0.5],[1,0.5]];portConstraint=eastwest;whiteSpace=wrap;html=1;" vertex="1" parent="v5DxhLGSwD0W5rHrL8kh-455">
          <mxGeometry y="26" width="380" height="26" as="geometry" />
        </mxCell>
        <mxCell id="v5DxhLGSwD0W5rHrL8kh-457" value="IdProducto INT NOT NULL," style="text;strokeColor=none;fillColor=none;align=left;verticalAlign=top;spacingLeft=4;spacingRight=4;overflow=hidden;rotatable=0;points=[[0,0.5],[1,0.5]];portConstraint=eastwest;whiteSpace=wrap;html=1;" vertex="1" parent="v5DxhLGSwD0W5rHrL8kh-455">
          <mxGeometry y="52" width="380" height="26" as="geometry" />
        </mxCell>
        <mxCell id="v5DxhLGSwD0W5rHrL8kh-461" value="fecha_fact DATE," style="text;strokeColor=none;fillColor=none;align=left;verticalAlign=top;spacingLeft=4;spacingRight=4;overflow=hidden;rotatable=0;points=[[0,0.5],[1,0.5]];portConstraint=eastwest;whiteSpace=wrap;html=1;" vertex="1" parent="v5DxhLGSwD0W5rHrL8kh-455">
          <mxGeometry y="78" width="380" height="26" as="geometry" />
        </mxCell>
        <mxCell id="v5DxhLGSwD0W5rHrL8kh-460" value="nombre_client VARCHAR(50)," style="text;strokeColor=none;fillColor=none;align=left;verticalAlign=top;spacingLeft=4;spacingRight=4;overflow=hidden;rotatable=0;points=[[0,0.5],[1,0.5]];portConstraint=eastwest;whiteSpace=wrap;html=1;" vertex="1" parent="v5DxhLGSwD0W5rHrL8kh-455">
          <mxGeometry y="104" width="380" height="26" as="geometry" />
        </mxCell>
        <mxCell id="v5DxhLGSwD0W5rHrL8kh-459" value="direccion VARCHAR(50)," style="text;strokeColor=none;fillColor=none;align=left;verticalAlign=top;spacingLeft=4;spacingRight=4;overflow=hidden;rotatable=0;points=[[0,0.5],[1,0.5]];portConstraint=eastwest;whiteSpace=wrap;html=1;" vertex="1" parent="v5DxhLGSwD0W5rHrL8kh-455">
          <mxGeometry y="130" width="380" height="26" as="geometry" />
        </mxCell>
        <mxCell id="v5DxhLGSwD0W5rHrL8kh-458" value="cantidad INT NOT NULL" style="text;strokeColor=none;fillColor=none;align=left;verticalAlign=top;spacingLeft=4;spacingRight=4;overflow=hidden;rotatable=0;points=[[0,0.5],[1,0.5]];portConstraint=eastwest;whiteSpace=wrap;html=1;" vertex="1" parent="v5DxhLGSwD0W5rHrL8kh-455">
          <mxGeometry y="156" width="380" height="26" as="geometry" />
        </mxCell>
        <mxCell id="v5DxhLGSwD0W5rHrL8kh-470" value="precio FLOAT" style="text;strokeColor=none;fillColor=none;align=left;verticalAlign=top;spacingLeft=4;spacingRight=4;overflow=hidden;rotatable=0;points=[[0,0.5],[1,0.5]];portConstraint=eastwest;whiteSpace=wrap;html=1;" vertex="1" parent="v5DxhLGSwD0W5rHrL8kh-455">
          <mxGeometry y="182" width="380" height="32" as="geometry" />
        </mxCell>
        <mxCell id="v5DxhLGSwD0W5rHrL8kh-462" value="&lt;b&gt;Agendamiento&lt;/b&gt;" style="swimlane;fontStyle=0;childLayout=stackLayout;horizontal=1;startSize=26;fillColor=none;horizontalStack=0;resizeParent=1;resizeParentMax=0;resizeLast=0;collapsible=1;marginBottom=0;whiteSpace=wrap;html=1;" vertex="1" parent="1">
          <mxGeometry x="-10" y="450" width="380" height="156" as="geometry" />
        </mxCell>
        <mxCell id="v5DxhLGSwD0W5rHrL8kh-463" value="IdFactura INT NOT NULL AUTO_INCREMENT PRIMARY KEY," style="text;strokeColor=none;fillColor=none;align=left;verticalAlign=top;spacingLeft=4;spacingRight=4;overflow=hidden;rotatable=0;points=[[0,0.5],[1,0.5]];portConstraint=eastwest;whiteSpace=wrap;html=1;" vertex="1" parent="v5DxhLGSwD0W5rHrL8kh-462">
          <mxGeometry y="26" width="380" height="26" as="geometry" />
        </mxCell>
        <mxCell id="v5DxhLGSwD0W5rHrL8kh-471" value="IdProducto INT NOT NULL," style="text;strokeColor=none;fillColor=none;align=left;verticalAlign=top;spacingLeft=4;spacingRight=4;overflow=hidden;rotatable=0;points=[[0,0.5],[1,0.5]];portConstraint=eastwest;whiteSpace=wrap;html=1;" vertex="1" parent="v5DxhLGSwD0W5rHrL8kh-462">
          <mxGeometry y="52" width="380" height="26" as="geometry" />
        </mxCell>
        <mxCell id="v5DxhLGSwD0W5rHrL8kh-472" value="fecha_fact DATE," style="text;strokeColor=none;fillColor=none;align=left;verticalAlign=top;spacingLeft=4;spacingRight=4;overflow=hidden;rotatable=0;points=[[0,0.5],[1,0.5]];portConstraint=eastwest;whiteSpace=wrap;html=1;" vertex="1" parent="v5DxhLGSwD0W5rHrL8kh-462">
          <mxGeometry y="78" width="380" height="26" as="geometry" />
        </mxCell>
        <mxCell id="v5DxhLGSwD0W5rHrL8kh-473" value="direccion VARCHAR(50)," style="text;strokeColor=none;fillColor=none;align=left;verticalAlign=top;spacingLeft=4;spacingRight=4;overflow=hidden;rotatable=0;points=[[0,0.5],[1,0.5]];portConstraint=eastwest;whiteSpace=wrap;html=1;" vertex="1" parent="v5DxhLGSwD0W5rHrL8kh-462">
          <mxGeometry y="104" width="380" height="26" as="geometry" />
        </mxCell>
        <mxCell id="v5DxhLGSwD0W5rHrL8kh-474" value="cantidad INT NOT NULL" style="text;strokeColor=none;fillColor=none;align=left;verticalAlign=top;spacingLeft=4;spacingRight=4;overflow=hidden;rotatable=0;points=[[0,0.5],[1,0.5]];portConstraint=eastwest;whiteSpace=wrap;html=1;" vertex="1" parent="v5DxhLGSwD0W5rHrL8kh-462">
          <mxGeometry y="130" width="380" height="26" as="geometry" />
        </mxCell>
      </root>
    </mxGraphModel>
  </diagram>
</mxfile>
